<?xml version="1.0" encoding="UTF-8"?>
<svg width="151px" height="48px" viewBox="0 0 151 48" version="1.1" xmlns="http://www.w3.org/2000/svg" xmlns:xlink="http://www.w3.org/1999/xlink">
    <!-- Generator: Sketch 52.4 (67378) - http://www.bohemiancoding.com/sketch -->
    <title>basicly_logo_WIT</title>
    <desc>Created with Sketch.</desc>
    <g id="Symbols" stroke="none" stroke-width="1" fill="none" fill-rule="evenodd">
        <g id="basicly_logo_kleur" fill="#0FF78C">
            <g id="basicly_logo_WIT">
                <path d="M43.0188006,23.5642249 L49.7256743,22.5895345 C51.2215878,22.3842107 51.6345617,21.6145025 51.6345617,20.742474 C51.6345617,18.3312 50.0350611,16.3305737 46.268994,16.3305737 C42.8640213,16.3305737 40.9551339,18.4338619 40.6455753,21.3070292 L36.0021965,20.2296769 C36.518242,15.5097907 40.8003546,12.2264883 46.1659223,12.2264883 C53.5949849,12.2264883 56.4842556,16.4332356 56.4842556,21.2556128 L56.4842556,33.6189438 C56.4842556,35.7734776 56.690399,37.0561537 56.7936424,37.6719544 L52.0473637,37.6719544 C51.9441203,37.0561537 51.789341,36.1327089 51.789341,34.3374064 C50.7058859,36.0814633 48.2294172,38.441321 43.7925253,38.441321 C38.7366879,38.441321 35.4864945,34.9528655 35.4864945,31.0541039 C35.4864945,26.6422036 38.7366879,24.179684 43.0188006,23.5642249 M51.6345617,27.1037552 L51.6345617,25.9749865 L44.0507198,27.1037552 C41.9870531,27.4115701 40.4390884,28.5915843 40.4390884,30.7975345 C40.4390884,32.6442534 41.9870531,34.388652 44.4631783,34.388652 C48.4359041,34.388652 51.6345617,32.4901751 51.6345617,27.1037552" id="Fill-1"></path>
                <path d="M63.9447035,29.7201993 C64.2542621,32.2853808 66.2148571,34.3374235 69.7230733,34.3374235 C72.4575647,34.3374235 73.9534783,32.7981779 73.9534783,31.054121 C73.9534783,29.5148754 72.8184874,28.335032 70.7548207,27.8734804 L66.5244157,26.9500356 C62.6552769,26.1290819 60.3335875,23.5129964 60.3335875,20.0243701 C60.3335875,15.8177936 64.3059697,12.2265053 69.1556637,12.2265053 C75.9656091,12.2265053 78.0811552,16.6384057 78.5968571,18.8443559 L74.3147445,20.4350178 C74.1084294,19.1523416 73.0765101,16.3305907 69.1556637,16.3305907 C66.679195,16.3305907 65.0281586,17.9210819 65.0281586,19.6137224 C65.0281586,21.1017224 65.9571779,22.1790747 67.8658935,22.5895516 L71.8898116,23.4615801 C76.3784111,24.4362705 78.7516364,27.1550178 78.7516364,30.7975516 C78.7516364,34.2860071 75.8110016,38.4413381 69.6715374,38.4413381 C62.8612485,38.4413381 59.9723213,34.0808541 59.5593474,31.2594448 L63.9447035,29.7201993 Z" id="Fill-3"></path>
                <path d="M84.9172808,0.170801423 C86.877704,0.170801423 88.4256687,1.71004698 88.4256687,3.65925694 C88.4256687,5.55739217 86.877704,7.09663772 84.9172808,7.09663772 C83.0085652,7.09663772 81.4606005,5.55739217 81.4606005,3.65925694 C81.4606005,1.71004698 83.0085652,0.170801423 84.9172808,0.170801423 Z M82.5440555,37.6721253 L87.3422137,37.6721253 L87.3422137,12.9960256 L82.5440555,12.9960256 L82.5440555,37.6721253 Z" id="Fill-5"></path>
                <path d="M95.8132449,25.308316 C95.8132449,30.9514762 99.3728251,33.9782093 103.397087,33.9782093 C108.040466,33.9782093 109.742866,30.8488142 110.310104,28.8994335 L114.59256,30.7461523 C113.406033,34.2860242 109.84611,38.4413552 103.397087,38.4413552 C96.1741676,38.4413552 90.8603075,32.798195 90.8603075,25.308316 C90.8603075,17.6131132 96.277411,12.2265224 103.345551,12.2265224 C109.949353,12.2265224 113.354326,16.3306078 114.386245,20.0756327 L110.000889,21.9223516 C109.3816,19.5110776 107.575956,16.6898391 103.345551,16.6898391 C99.424361,16.6898391 95.8132449,19.562494 95.8132449,25.308316" id="Path"></path>
                <polygon id="Fill-11" points="117.791681 37.6719715 122.641375 37.6719715 122.641375 0.530049822 117.791681 0.530049822"></polygon>
                <polygon id="Fill-12" points="145.73412 12.9960256 138.304542 30.028168 130.565921 12.9960256 124.994381 12.9960256 135.673809 34.9528655 129.482466 47.9832427 134.796669 47.9832427 150.944908 12.9960256"></polygon>
                <g id="Group-15" transform="translate(0.000000, 0.154078)">
                    <path d="M24.2190257,16.9546932 C25.4519347,15.2097822 26.17859,13.086679 26.17859,10.7970278 C26.17859,4.874921 21.3333625,0.0568142349 15.3778812,0.0568142349 L-6.87144482e-05,0.0568142349 L-6.87144482e-05,21.5370705 L6.71539431,21.5370705 L6.71539431,38.2246719 L22.0931725,38.2246719 C28.0486537,38.2246719 32.8938812,33.4067359 32.8938812,27.4846292 C32.8938812,22.2861096 29.1599381,17.9394619 24.2190257,16.9546932 Z M15.3778812,16.7447573 L6.71539431,16.7447573 L4.81921911,16.7447573 L4.81921911,4.84929822 L15.3778812,4.84929822 C18.6758312,4.84929822 21.3591304,7.51748327 21.3591304,10.7970278 C21.3591304,14.0765722 18.6758312,16.7447573 15.3778812,16.7447573 Z M11.5348539,21.5370705 L15.3778812,21.5370705 L22.0931725,21.5370705 C25.391466,21.5370705 28.0745934,24.2050847 28.0745934,27.4846292 C28.0745934,30.7641737 25.391466,33.4323587 22.0931725,33.4323587 L11.5348539,33.4323587 L11.5348539,21.5370705 Z" id="Fill-13"></path>
                </g>
            </g>
        </g>
    </g>
</svg>